<svg width="36" height="36" viewBox="0 0 26 26" fill="none" xmlns="http://www.w3.org/2000/svg">
<mask id="path-1-outside-1_12_1855" maskUnits="userSpaceOnUse" x="0" y="0" width="26" height="14" fill="black">
<rect fill="white" width="26" height="14"/>
<path d="M25 13C25 9.8174 23.7357 6.76516 21.4853 4.51472C19.2348 2.26428 16.1826 1 13 1C9.8174 1 6.76516 2.26428 4.51472 4.51472C2.26428 6.76515 1 9.8174 1 13L13 13H25Z"/>
</mask>
<path d="M25 13C25 9.8174 23.7357 6.76516 21.4853 4.51472C19.2348 2.26428 16.1826 1 13 1C9.8174 1 6.76516 2.26428 4.51472 4.51472C2.26428 6.76515 1 9.8174 1 13L13 13H25Z" fill="#FF3D3D"/>
<path d="M25 13C25 9.8174 23.7357 6.76516 21.4853 4.51472C19.2348 2.26428 16.1826 1 13 1C9.8174 1 6.76516 2.26428 4.51472 4.51472C2.26428 6.76515 1 9.8174 1 13L13 13H25Z" stroke="black" stroke-width="2" mask="url(#path-1-outside-1_12_1855)"/>
<mask id="path-2-outside-2_12_1855" maskUnits="userSpaceOnUse" x="0" y="12" width="26" height="14" fill="black">
<rect fill="white" y="12" width="26" height="14"/>
<path d="M1 13C1 16.1826 2.26428 19.2348 4.51472 21.4853C6.76515 23.7357 9.8174 25 13 25C16.1826 25 19.2348 23.7357 21.4853 21.4853C23.7357 19.2348 25 16.1826 25 13L13 13L1 13Z"/>
</mask>
<path d="M1 13C1 16.1826 2.26428 19.2348 4.51472 21.4853C6.76515 23.7357 9.8174 25 13 25C16.1826 25 19.2348 23.7357 21.4853 21.4853C23.7357 19.2348 25 16.1826 25 13L13 13L1 13Z" fill="white"/>
<path d="M1 13C1 16.1826 2.26428 19.2348 4.51472 21.4853C6.76515 23.7357 9.8174 25 13 25C16.1826 25 19.2348 23.7357 21.4853 21.4853C23.7357 19.2348 25 16.1826 25 13L13 13L1 13Z" stroke="black" stroke-width="2" mask="url(#path-2-outside-2_12_1855)"/>
<circle cx="13" cy="13" r="1.80435" fill="white" stroke="black"/>
<path d="M13 1C6.374 1 1 6.373 1 13C1 18.302 4.438 22.8 9.207 24.387C9.806 24.498 10 24.126 10 23.81V21.576C6.662 22.302 5.967 20.16 5.967 20.16C5.421 18.773 4.634 18.404 4.634 18.404C3.545 17.659 4.717 17.675 4.717 17.675C5.922 17.759 6.556 18.912 6.556 18.912C7.626 20.746 9.363 20.216 10.048 19.909C10.155 19.134 10.466 18.604 10.81 18.305C8.145 18 5.343 16.971 5.343 12.374C5.343 11.063 5.812 9.993 6.579 9.153C6.455 8.85 6.044 7.629 6.696 5.977C6.696 5.977 7.704 5.655 9.997 7.207C10.954 6.941 11.98 6.808 13 6.803C14.02 6.808 15.047 6.941 16.006 7.207C18.297 5.655 19.303 5.977 19.303 5.977C19.956 7.63 19.545 8.851 19.421 9.153C20.191 9.993 20.656 11.064 20.656 12.374C20.656 16.983 17.849 17.998 15.177 18.295C15.607 18.667 16 19.397 16 20.517V23.81C16 24.129 16.192 24.504 16.801 24.386C21.566 22.797 25 18.3 25 13C25 6.373 19.627 1 13 1Z" fill="black"/>
</svg>
