<svg viewBox="0 0 347 451" fill="none" xmlns="http://www.w3.org/2000/svg">
<path d="M336.328 203.1L338.235 203.572L338.741 201.674C349.749 160.393 339.558 114.736 315.523 78.6145C291.465 42.4571 253.772 16.5125 210.742 6.46626C167.695 -3.5838 122.84 3.56564 85.9969 25.5094C49.1414 47.4608 19.0252 89.6797 13.5155 130.451L13.2618 132.329L15.1227 132.684L176.197 163.414L336.328 203.1Z" fill="#FF3D3D" stroke="black" stroke-width="4"/>
<path d="M163.691 219.92C208.049 230.16 249.542 233.999 280.797 231.885C296.411 230.828 309.588 228.278 319.315 224.221C328.988 220.187 335.679 214.467 337.443 206.827C339.207 199.186 335.7 191.112 328.775 183.246C321.81 175.335 311.085 167.267 297.514 159.473C270.35 143.871 231.374 129.132 187.015 118.891C142.657 108.65 101.164 104.811 69.9097 106.926C54.2955 107.983 41.1189 110.532 31.3913 114.589C21.7186 118.624 15.0275 124.343 13.2635 131.984C11.4995 139.625 15.0062 147.698 21.9314 155.565C28.896 163.476 39.6213 171.543 53.1921 179.338C80.3563 194.94 119.333 209.679 163.691 219.92Z" fill="#B9B9B9" stroke="black" stroke-width="4"/>
<circle cx="119.089" cy="115.272" r="47.91" fill="white" stroke="black" stroke-width="4"/>
<mask id="path-4-outside-1_14_874" maskUnits="userSpaceOnUse" x="0.0596619" y="282.07" width="344" height="168" fill="black">
<rect fill="white" x="0.0596619" y="282.07" width="344" height="168"/>
<path d="M4.1189 286.227C4.1189 328.62 21.8157 369.277 53.3163 399.253C84.8168 429.229 127.541 446.07 172.089 446.07C216.638 446.07 259.362 429.229 290.862 399.253C322.363 369.277 340.06 328.62 340.06 286.227L172.089 286.227L4.1189 286.227Z"/>
</mask>
<path d="M4.1189 286.227C4.1189 328.62 21.8157 369.277 53.3163 399.253C84.8168 429.229 127.541 446.07 172.089 446.07C216.638 446.07 259.362 429.229 290.862 399.253C322.363 369.277 340.06 328.62 340.06 286.227L172.089 286.227L4.1189 286.227Z" fill="white"/>
<path d="M4.1189 286.227C4.1189 328.62 21.8157 369.277 53.3163 399.253C84.8168 429.229 127.541 446.07 172.089 446.07C216.638 446.07 259.362 429.229 290.862 399.253C322.363 369.277 340.06 328.62 340.06 286.227L172.089 286.227L4.1189 286.227Z" stroke="black" stroke-width="8" mask="url(#path-4-outside-1_14_874)"/>
<path d="M172.089 328.865C218.599 328.865 260.778 323.698 291.391 315.304C306.684 311.111 319.204 306.083 327.948 300.414C336.604 294.802 342.06 288.222 342.06 280.809C342.06 273.396 336.604 266.815 327.948 261.203C319.204 255.535 306.684 250.506 291.391 246.313C260.778 237.919 218.599 232.752 172.089 232.752C125.58 232.752 83.4008 237.919 52.7874 246.313C37.495 250.506 24.9748 255.535 16.2309 261.203C7.57412 266.815 2.11888 273.396 2.11888 280.809C2.11888 288.222 7.57412 294.802 16.2309 300.414C24.9748 306.083 37.495 311.111 52.7874 315.304C83.4008 323.698 125.58 328.865 172.089 328.865Z" fill="#B9B9B9" stroke="black" stroke-width="4"/>
<rect x="106" y="148" width="136" height="136" rx="6" fill="white" stroke="black" stroke-width="4"/>
</svg>
