<svg viewBox="0 0 48 48" fill="none" xmlns="http://www.w3.org/2000/svg">
<path d="M44 24C44 18.6957 41.8929 13.6086 38.1421 9.85786C34.3914 6.10714 29.3043 4 24 4C18.6957 4 13.6086 6.10714 9.85787 9.85786C6.10714 13.6086 4 18.6957 4 24L44 24Z" fill="#DADADA"/>
<path d="M4 24C4 29.3043 6.10714 34.3914 9.85786 38.1421C13.6086 41.8929 18.6957 44 24 44C29.3043 44 34.3914 41.8929 38.1421 38.1421C41.8929 34.3914 44 29.3043 44 24L4 24Z" fill="white"/>
<path d="M46 24C46 18.1652 43.6821 12.5695 39.5564 8.44365C35.4305 4.31785 29.8348 2 24 2C18.1652 2 12.5695 4.31785 8.44365 8.44365C4.31785 12.5694 2 18.1652 2 24C2 29.8348 4.31785 35.4305 8.44365 39.5564C12.5695 43.6821 18.1652 46 24 46C29.8348 46 35.4305 43.6822 39.5564 39.5564C43.6822 35.4306 46 29.8348 46 24Z" stroke="#B9B9B9" stroke-width="4"/>
<line x1="4" y1="24" x2="44" y2="24" stroke="#B9B9B9" stroke-width="4"/>
<circle cx="24" cy="24" r="7.94595" fill="white" stroke="#B9B9B9" stroke-width="4"/>
</svg>
