<svg viewBox="0 0 345 348" fill="none" xmlns="http://www.w3.org/2000/svg">
<mask id="path-1-outside-1_13_580" maskUnits="userSpaceOnUse" x="0.0596924" y="180" width="344" height="168" fill="black">
<rect fill="white" x="0.0596924" y="180" width="344" height="168"/>
<path d="M4.11893 184.157C4.11893 226.55 21.8158 267.207 53.3163 297.183C84.8169 327.159 127.541 344 172.089 344C216.638 344 259.362 327.159 290.862 297.183C322.363 267.207 340.06 226.55 340.06 184.157L172.089 184.157L4.11893 184.157Z"/>
</mask>
<path d="M4.11893 184.157C4.11893 226.55 21.8158 267.207 53.3163 297.183C84.8169 327.159 127.541 344 172.089 344C216.638 344 259.362 327.159 290.862 297.183C322.363 267.207 340.06 226.55 340.06 184.157L172.089 184.157L4.11893 184.157Z" fill="white"/>
<path d="M4.11893 184.157C4.11893 226.55 21.8158 267.207 53.3163 297.183C84.8169 327.159 127.541 344 172.089 344C216.638 344 259.362 327.159 290.862 297.183C322.363 267.207 340.06 226.55 340.06 184.157L172.089 184.157L4.11893 184.157Z" stroke="black" stroke-width="8" mask="url(#path-1-outside-1_13_580)"/>
<mask id="path-2-outside-2_13_580" maskUnits="userSpaceOnUse" x="0" y="0" width="345" height="229" fill="black">
<rect fill="white" width="345" height="229"/>
<path fill-rule="evenodd" clip-rule="evenodd" d="M290.794 53.9383C322.3 85.9133 340 129.281 340 174.5H339.358C339.822 175.896 340.06 177.31 340.06 178.739C340.06 204.175 264.857 224.795 172.089 224.795C79.3218 224.795 4.1189 204.175 4.1189 178.739C4.1189 177.31 4.35627 175.896 4.8208 174.5H4C4.00001 129.281 21.7 85.9132 53.2061 53.9383C84.7122 21.9633 127.444 4 172 4C216.556 4 259.288 21.9633 290.794 53.9383Z"/>
</mask>
<path fill-rule="evenodd" clip-rule="evenodd" d="M290.794 53.9383C322.3 85.9133 340 129.281 340 174.5H339.358C339.822 175.896 340.06 177.31 340.06 178.739C340.06 204.175 264.857 224.795 172.089 224.795C79.3218 224.795 4.1189 204.175 4.1189 178.739C4.1189 177.31 4.35627 175.896 4.8208 174.5H4C4.00001 129.281 21.7 85.9132 53.2061 53.9383C84.7122 21.9633 127.444 4 172 4C216.556 4 259.288 21.9633 290.794 53.9383Z" fill="#FF3D3D"/>
<path d="M340 174.5V178.5H344V174.5H340ZM290.794 53.9383L293.643 51.1308L293.643 51.1308L290.794 53.9383ZM339.358 174.5V170.5H333.811L335.562 175.763L339.358 174.5ZM4.8208 174.5L8.61615 175.763L10.3676 170.5H4.8208V174.5ZM4 174.5L0 174.5L-5.95127e-07 178.5H4V174.5ZM53.2061 53.9383L50.3568 51.1308L50.3568 51.1308L53.2061 53.9383ZM172 4L172 0L172 4ZM344 174.5C344 128.239 325.893 83.8603 293.643 51.1308L287.945 56.7458C318.707 87.9662 336 130.323 336 174.5H344ZM339.358 178.5H340V170.5H339.358V178.5ZM335.562 175.763C335.898 176.773 336.06 177.761 336.06 178.739H344.06C344.06 176.859 343.746 175.019 343.153 173.237L335.562 175.763ZM336.06 178.739C336.06 182.99 332.87 188.003 324.684 193.31C316.672 198.503 304.815 203.332 289.805 207.448C259.841 215.664 218.221 220.795 172.089 220.795V228.795C218.725 228.795 261.09 223.617 291.92 215.163C307.307 210.944 320.048 205.849 329.036 200.022C337.849 194.309 344.06 187.206 344.06 178.739H336.06ZM172.089 220.795C125.957 220.795 84.3373 215.664 54.374 207.448C39.3639 203.332 27.5062 198.503 19.4947 193.31C11.309 188.003 8.1189 182.99 8.1189 178.739H0.118896C0.118896 187.206 6.32919 194.309 15.143 200.022C24.131 205.849 36.872 210.944 52.2585 215.163C83.0886 223.617 125.454 228.795 172.089 228.795V220.795ZM8.1189 178.739C8.1189 177.76 8.28021 176.772 8.61615 175.763L1.02545 173.237C0.432332 175.019 0.118896 176.859 0.118896 178.739H8.1189ZM4 178.5H4.8208V170.5H4V178.5ZM50.3568 51.1308C18.1073 83.8603 6.88285e-06 128.239 0 174.5L8 174.5C8.00001 130.323 25.2927 87.9662 56.0553 56.7457L50.3568 51.1308ZM172 0C126.364 -3.49673e-06 82.6084 18.3993 50.3568 51.1308L56.0553 56.7457C86.816 25.5273 128.524 8 172 8L172 0ZM293.643 51.1308C261.392 18.3994 217.636 3.49673e-06 172 0L172 8C215.476 8 257.184 25.5273 287.945 56.7458L293.643 51.1308Z" fill="black" mask="url(#path-2-outside-2_13_580)"/>
<circle cx="91.91" cy="211.91" r="47.91" fill="white" stroke="black" stroke-width="4"/>
</svg>
